g Cube.002
v 0.6476651 -5.960464E-08 0.3261101
v 0.5144752 -5.960464E-08 0.3261101
v 0.7229294 -5.960464E-08 0.3461688
v 0.5378059 -5.960464E-08 0.2919033
v 0.8115815 -5.960464E-08 0.2699049
v 0.6842273 -5.960464E-08 0.2699049
v 0.09401303 -5.960464E-08 0.2268705
v 0.2245916 -5.960464E-08 0.2190358
v 0.09662446 -5.960464E-08 0.1955318
v 0.2507071 -5.960464E-08 0.1670099
v 0.8115815 -5.960464E-08 0.3727999
v 0.4200597 -5.960464E-08 0.3727999
v 0.7483197 -5.960464E-08 0.4096444
v 0.8115815 -5.960464E-08 0.1670099
v 0.7882186 -5.960464E-08 0.4495432
v 0.6721491 -5.960464E-08 0.4223394
v 0.8115815 -5.960464E-08 0.4756948
v 0.7319971 -5.960464E-08 0.4756948
v 0.7317957 -5.960464E-08 0.5785898
v 0.8115815 -5.960464E-08 0.5785898
v 0.7315942 -5.960464E-08 0.6814848
v 0.8115815 -5.960464E-08 0.6814848
v -0.8347379 -5.960464E-08 0.1670099
v -0.7103496 -5.960464E-08 0.1670099
v -0.532763 -5.960464E-08 0.2138127
v -0.69468 -5.960464E-08 0.2216474
v -0.8347379 -5.960464E-08 0.2699049
v -0.6201185 -5.960464E-08 0.2511897
v -0.8347379 -5.960464E-08 0.06411497
v 0.8115815 -5.960464E-08 0.06411497
v 0.8115815 -5.960464E-08 -0.03877999
v -0.8347379 -5.960464E-08 -0.03877999
v 0.8115815 -5.960464E-08 -0.141675
v -0.8347379 -5.960464E-08 -0.141675
v 0.8115815 -5.960464E-08 -0.2445699
v -0.8347379 -5.960464E-08 -0.2445699
v 0.8115815 -5.960464E-08 -0.3474649
v -0.8347379 -5.960464E-08 -0.3474649
v 0.8115815 -5.960464E-08 -0.4503598
v -0.8347379 -5.960464E-08 -0.4503598
v 0.8115815 -5.960464E-08 -0.5532548
v -0.8347379 -5.960464E-08 -0.5532548
v 0.8115815 -5.960464E-08 -0.6561497
v -0.8347379 -5.960464E-08 -0.6561497
v -0.3228626 -5.960464E-08 0.7382301
v -0.5450275 -5.960464E-08 0.7125373
v -0.8110203 -5.960464E-08 0.7336957
v -0.8347379 -5.960464E-08 0.6814848
v -0.5208019 -5.960464E-08 0.6814848
v -0.3591343 -5.960464E-08 0.6814848
v -0.7614837 -5.960464E-08 0.6376703
v -0.8347379 -5.960464E-08 0.7843797
v -0.3168174 -5.960464E-08 0.7843797
v -0.4815518 -5.960464E-08 0.8077506
v -0.8347379 -5.960464E-08 0.5785898
v -0.8064372 -5.960464E-08 0.8356571
v -0.3243741 -5.960464E-08 0.8273981
v -0.8347379 -5.960464E-08 0.8872747
v -0.552593 -5.960464E-08 0.8481927
v -0.7813661 -5.960464E-08 0.8872747
v 0.7309896 -5.960464E-08 0.9901696
v -0.8347379 -5.960464E-08 0.9901696
v 0.731191 -5.960464E-08 0.8872747
v 0.8115815 -5.960464E-08 0.9901696
v 0.7634097 -5.960464E-08 0.8872747
v 0.8115815 -5.960464E-08 0.8872747
v 0.7311989 -5.960464E-08 0.8834023
v 0.7312593 -5.960464E-08 0.8524551
v 0.5494064 -5.960464E-08 0.8615477
v 0.7670368 -5.960464E-08 0.8506663
v 0.7313927 -5.960464E-08 0.7843797
v 0.8115815 -5.960464E-08 0.7843797
v 0.731268 -5.960464E-08 0.8479741
v 0.7314867 -5.960464E-08 0.7363916
v 0.7761045 -5.960464E-08 0.7345966
v 0.4605406 -5.960464E-08 0.747292
v 0.3172669 -5.960464E-08 0.7618005
v 0.5312701 -5.960464E-08 0.7843797
v 0.3480979 -5.960464E-08 0.8143945
v 0.4297095 -5.960464E-08 0.8252764
v 0.7314903 -5.960464E-08 0.7345966
v 0.2828087 -5.960464E-08 0.6814848
v 0.426082 -5.960464E-08 0.7092066
v 0.2918769 -5.960464E-08 0.7345966
v -0.7495232 -5.960464E-08 0.5428702
v -0.6241677 -5.960464E-08 0.5219777
v -0.8347379 -5.960464E-08 0.4756948
v -0.2951108 -5.960464E-08 0.5785898
v -0.5092589 -5.960464E-08 0.6081593
v -0.3055567 -5.960464E-08 0.6473328
vt 0.854092 0.3097555
vt 0.7831452 0.3097555
vt 0.8941834 0.3151038
vt 0.7955729 0.3006348
vt 0.9414063 0.2947693
vt 0.8735679 0.2947693
vt 0.5591755 0.2832949
vt 0.6287314 0.2812059
vt 0.5605667 0.2749389
vt 0.6426425 0.267334
vt 0.9414063 0.3222046
vt 0.7328524 0.3222046
vt 0.9077082 0.3320286
vt 0.9414063 0.267334
vt 0.9289613 0.342667
vt 0.8671342 0.3354136
vt 0.9414063 0.3496399
vt 0.8990136 0.3496399
vt 0.8989063 0.3770752
vt 0.9414063 0.3770752
vt 0.898799 0.4045105
vt 0.9414063 0.4045105
vt 0.06445313 0.267334
vt 0.1307116 0.267334
vt 0.2253076 0.2798132
vt 0.1390584 0.2819022
vt 0.06445313 0.2947693
vt 0.1787756 0.2897792
vt 0.06445313 0.2398987
vt 0.9414063 0.2398987
vt 0.9414063 0.2124634
vt 0.06445313 0.2124634
vt 0.9414063 0.1850281
vt 0.06445313 0.1850281
vt 0.9414063 0.1575928
vt 0.06445313 0.1575928
vt 0.9414063 0.1301575
vt 0.06445313 0.1301575
vt 0.9414063 0.1027222
vt 0.06445313 0.1027222
vt 0.9414063 0.07528687
vt 0.06445313 0.07528687
vt 0.9414063 0.04785156
vt 0.06445313 0.04785156
vt 0.3371162 0.4196407
vt 0.2187746 0.4127902
vt 0.07708693 0.4184318
vt 0.06445313 0.4045105
vt 0.231679 0.4045105
vt 0.3177952 0.4045105
vt 0.103474 0.3928281
vt 0.06445313 0.4319458
vt 0.3403364 0.4319458
vt 0.2525865 0.4381773
vt 0.06445313 0.3770752
vt 0.07952821 0.4456181
vt 0.3363111 0.4434159
vt 0.06445313 0.4593811
vt 0.2147447 0.4489605
vt 0.09288293 0.4593811
vt 0.898477 0.4868164
vt 0.06445313 0.4868164
vt 0.8985843 0.459381
vt 0.9414063 0.4868164
vt 0.9157464 0.4593811
vt 0.9414063 0.4593811
vt 0.8985885 0.4583486
vt 0.8986206 0.450097
vt 0.8017521 0.4525214
vt 0.9176784 0.4496201
vt 0.8986917 0.4319458
vt 0.9414063 0.4319458
vt 0.8986253 0.4489022
vt 0.8987414 0.4191506
vt 0.9225083 0.418672
vt 0.754415 0.422057
vt 0.6780972 0.4259254
vt 0.7920914 0.4319458
vt 0.6945187 0.4399487
vt 0.7379923 0.4428502
vt 0.8987434 0.4186719
vt 0.6597422 0.4045105
vt 0.7360603 0.411902
vt 0.6645725 0.4186719
vt 0.1098441 0.3675511
vt 0.1766186 0.3619805
vt 0.06445313 0.3496399
vt 0.351899 0.3770752
vt 0.2378276 0.3849595
vt 0.3463351 0.3954044
vn 0 -1 0
vn 0 -1 0
vn 0 -1 0
vn 0 -1 0
vn 0 -1 0
vn 0 -1 0
vn 0 -1 0
vn 0 -1 0
vn 0 -1 0
vn 0 -1 0
vn 0 -1 0
vn 0 -1 0
vn 0 -1 0
vn 0 -1 0
vn 0 -1 0
vn 0 -1 0
vn 0 -1 0
vn 0 -1 0
vn 0 -1 0
vn 0 -1 0
vn 0 -1 0
vn 0 -1 0
vn 0 -1 0
vn 0 -1 0
vn 0 -1 0
vn 0 -1 0
vn 0 -1 0
vn 0 -1 0
vn 0 -1 0
vn 0 -1 0
vn 0 -1 0
vn 0 -1 0
vn 0 -1 0
vn 0 -1 0
vn 0 -1 0
vn 0 -1 0
vn 0 -1 0
vn 0 -1 0
vn 0 -1 0
vn 0 -1 0
vn 0 -1 0
vn 0 -1 0
vn 0 -1 0
vn 0 -1 0
vn 0 -1 0
vn 0 -1 0
vn 0 -1 0
vn 0 -1 0
vn 0 -1 0
vn 0 -1 0
vn 0 -1 0
vn 0 -1 0
vn 0 -1 0
vn 0 -1 0
vn 0 -1 0
vn 0 -1 0
vn 0 -1 0
vn 0 -1 0
vn 0 -1 0
vn 0 -1 0
vn 0 -1 0
vn 0 -1 0
vn 0 -1 0
vn 0 -1 0
vn 0 -1 0
vn 0 -1 0
vn 0 -1 0
vn 0 -1 0
vn 0 -1 0
vn 0 -1 0
vn 0 -1 0
vn 0 -1 0
vn 0 -1 0
vn 0 -1 0
vn 0 -1 0
vn 0 -1 0
vn 0 -1 0
vn 0 -1 0
vn 0 -1 0
vn 0 -1 0
vn 0 -1 0
vn 0 -1 0
vn 0 -1 0
vn 0 -1 0
vn 0 -1 0
vn 0 -1 0
vn 0 -1 0
vn 0 -1 0
vn 0 -1 0
vn 0 -1 0
g Cube.002_0
f 3/3/3 2/2/2 1/1/1
f 3/3/3 1/1/1 4/4/4
f 3/3/3 4/4/4 5/5/5
f 5/5/5 4/4/4 6/6/6
f 5/5/5 6/6/6 7/7/7
f 5/5/5 7/7/7 8/8/8
f 5/5/5 8/8/8 9/9/9
f 5/5/5 9/9/9 10/10/10
f 5/5/5 11/11/11 3/3/3
f 11/11/11 12/12/12 3/3/3
f 13/13/13 12/12/12 11/11/11
f 10/10/10 14/14/14 5/5/5
f 11/11/11 15/15/15 13/13/13
f 15/15/15 16/16/16 13/13/13
f 11/11/11 17/17/17 15/15/15
f 17/17/17 18/18/18 15/15/15
f 19/19/19 18/18/18 17/17/17
f 20/20/20 19/19/19 17/17/17
f 21/21/21 19/19/19 20/20/20
f 22/22/22 21/21/21 20/20/20
f 14/14/14 10/10/10 23/23/23
f 10/10/10 24/24/24 23/23/23
f 23/23/23 24/24/24 25/25/25
f 25/25/25 26/26/26 23/23/23
f 26/26/26 27/27/27 23/23/23
f 26/26/26 28/28/28 27/27/27
f 14/14/14 23/23/23 29/29/29
f 29/29/29 30/30/30 14/14/14
f 30/30/30 29/29/29 31/31/31
f 29/29/29 32/32/32 31/31/31
f 31/31/31 32/32/32 33/33/33
f 32/32/32 34/34/34 33/33/33
f 33/33/33 34/34/34 35/35/35
f 34/34/34 36/36/36 35/35/35
f 35/35/35 36/36/36 37/37/37
f 36/36/36 38/38/38 37/37/37
f 37/37/37 38/38/38 39/39/39
f 38/38/38 40/40/40 39/39/39
f 39/39/39 40/40/40 41/41/41
f 40/40/40 42/42/42 41/41/41
f 41/41/41 42/42/42 43/43/43
f 42/42/42 44/44/44 43/43/43
f 47/47/47 46/46/46 45/45/45
f 46/46/46 47/47/47 48/48/48
f 46/46/46 48/48/48 49/49/49
f 49/49/49 50/50/50 46/46/46
f 51/51/51 49/49/49 48/48/48
f 47/47/47 52/52/52 48/48/48
f 47/47/47 53/53/53 52/52/52
f 52/52/52 53/53/53 54/54/54
f 51/51/51 48/48/48 55/55/55
f 54/54/54 56/56/56 52/52/52
f 54/54/54 57/57/57 56/56/56
f 56/56/56 58/58/58 52/52/52
f 56/56/56 59/59/59 58/58/58
f 59/59/59 60/60/60 58/58/58
f 61/61/61 58/58/58 60/60/60
f 61/61/61 62/62/62 58/58/58
f 60/60/60 63/63/63 61/61/61
f 64/64/64 61/61/61 63/63/63
f 64/64/64 63/63/63 65/65/65
f 65/65/65 66/66/66 64/64/64
f 66/66/66 65/65/65 67/67/67
f 66/66/66 67/67/67 68/68/68
f 67/67/67 69/69/69 68/68/68
f 66/66/66 68/68/68 70/70/70
f 66/66/66 70/70/70 71/71/71
f 71/71/71 72/72/72 66/66/66
f 70/70/70 73/73/73 71/71/71
f 72/72/72 71/71/71 74/74/74
f 72/72/72 74/74/74 75/75/75
f 22/22/22 72/72/72 75/75/75
f 75/75/75 21/21/21 22/22/22
f 76/76/76 74/74/74 71/71/71
f 71/71/71 77/77/77 76/76/76
f 71/71/71 78/78/78 77/77/77
f 78/78/78 71/71/71 73/73/73
f 73/73/73 79/79/79 78/78/78
f 73/73/73 80/80/80 79/79/79
f 21/21/21 75/75/75 81/81/81
f 82/82/82 21/21/21 81/81/81
f 81/81/81 83/83/83 82/82/82
f 81/81/81 84/84/84 83/83/83
f 87/87/87 86/86/86 85/85/85
f 85/85/85 55/55/55 87/87/87
f 85/85/85 88/88/88 55/55/55
f 55/55/55 88/88/88 89/89/89
f 89/89/89 51/51/51 55/55/55
f 51/51/51 89/89/89 90/90/90
