g RebarMesh
v -8.74228E-09 -2.546306 0.1
v -0.08660257 -2.546305 0.05
v -0.08660257 2.546305 0.05000001
v -8.74228E-09 2.546305 0.1
v 0.08660256 -2.546305 0.05000001
v 0.08660256 2.546306 0.05000002
v 0.08660257 -2.546305 -0.05000001
v 0.08660257 2.546305 -0.05000001
v 4.440893E-17 -2.546305 -0.1
v -2.977851E-24 2.546306 -0.1
v -0.08660257 -2.546305 -0.05
v -0.08660257 2.546305 -0.05
v -0.08660257 -2.546305 0.05
v -0.08660257 2.546305 0.05000001
v -0.08660257 2.546305 -0.05
v -2.977851E-24 2.546306 -0.1
v 0.08660257 2.546305 -0.05000001
v 0.08660256 2.546306 0.05000002
v -0.08660257 2.546305 0.05000001
v -8.74228E-09 2.546305 0.1
v 0.08660257 -2.546305 -0.05000001
v 4.440893E-17 -2.546305 -0.1
v -0.08660257 -2.546305 -0.05
v 0.08660256 -2.546305 0.05000001
v -0.08660257 -2.546305 0.05
v -8.74228E-09 -2.546306 0.1
vt -24.68342 -1.303386
vt -25.20106 -0.3374605
vt 23.09523 6.133016
vt 23.61287 5.167089
vt -24.16578 -2.269312
vt 24.13051 4.201164
vt -23.64815 -3.235238
vt 24.64815 3.235238
vt -23.13051 -4.201164
vt 25.16578 2.269312
vt -22.61287 -5.167089
vt 25.68342 1.303387
vt -22.09523 -6.133016
vt 26.20106 0.3374605
vt 0.03100392 0.1007628
vt 0.03100392 0.1007628
vt 0.03100392 0.1007628
vt 0.03100392 0.1007628
vt 0.03100392 0.1007628
vt 0.03100392 0.1007628
vt 0.03100392 0.1007628
vt 0.03100392 0.1007628
vt 0.03100392 0.1007628
vt 0.03100392 0.1007628
vt 0.03100392 0.1007628
vt 0.03100392 0.1007628
vn 0 0 1
vn -0.8660316 0 0.4999893
vn -0.8660316 0 0.4999893
vn 0 0 1
vn 0.8660316 0 0.4999893
vn 0.8660316 0 0.4999893
vn 0.8660316 0 -0.4999893
vn 0.8660316 0 -0.4999893
vn 0 0 -1
vn 0 0 -1
vn -0.8660316 0 -0.4999893
vn -0.8660316 0 -0.4999893
vn -0.8660316 0 0.4999893
vn -0.8660316 0 0.4999893
vn 0 1 0
vn 0 1 0
vn 0 1 0
vn 0 1 0
vn 0 1 0
vn 0 1 0
vn 0 -1 0
vn 0 -1 0
vn 0 -1 0
vn 0 -1 0
vn 0 -1 0
vn 0 -1 0
g RebarMesh_0
f 3/3/3 2/2/2 1/1/1
f 4/4/4 3/3/3 1/1/1
f 4/4/4 1/1/1 5/5/5
f 6/6/6 4/4/4 5/5/5
f 6/6/6 5/5/5 7/7/7
f 8/8/8 6/6/6 7/7/7
f 8/8/8 7/7/7 9/9/9
f 10/10/10 8/8/8 9/9/9
f 10/10/10 9/9/9 11/11/11
f 12/12/12 10/10/10 11/11/11
f 12/12/12 11/11/11 13/13/13
f 14/14/14 12/12/12 13/13/13
f 17/17/17 16/16/16 15/15/15
f 15/15/15 18/18/18 17/17/17
f 15/15/15 19/19/19 18/18/18
f 19/19/19 20/20/20 18/18/18
f 23/23/23 22/22/22 21/21/21
f 21/21/21 24/24/24 23/23/23
f 24/24/24 25/25/25 23/23/23
f 24/24/24 26/26/26 25/25/25
