g RoboCrateChunk2
v -0.4797427 0.04 -0.0340386
v -0.3150084 0.04 -0.05740947
v 0.5330791 0.04 -0.05740947
v 0.349907 0.03999878 -0.02739471
v -0.3225651 0.04 -0.01439112
v 0.4315185 0.04 -0.01651281
v 0.7688458 0.04 0.008877099
v -0.8046282 0.04 -0.006132066
v -0.550784 0.04 0.006403506
v -0.7795571 0.04 0.0454855
v 0.5512154 0.04 0.01975852
v 0.7652187 0.03999878 0.0454855
v -0.7795571 0 0.0454855
v -0.7795571 0.04 0.0454855
v 0.7652187 0.03999878 0.0454855
v 0.7652187 0 0.0454855
v 0.5512154 0.04 0.01975852
v 0.5512154 0 0.01975852
v 0.7688458 0 0.008877099
v 0.7688458 0.04 0.008877099
v 0.4315185 0.04 -0.01651281
v -0.550784 0 0.006403506
v -0.550784 0.04 0.006403506
v -0.8046282 0 -0.006132066
v -0.8046282 0.04 -0.006132066
v -0.3225651 0 -0.01439112
v -0.3225651 0.04 -0.01439112
v 0.4315185 0 -0.01651281
v 0.349907 0.03999878 -0.02739471
v 0.349907 0 -0.02739471
v 0.5330791 0.04 -0.05740947
v -0.4797427 0 -0.0340386
v -0.4797427 0.04 -0.0340386
v -0.3150084 0 -0.05740947
v -0.3150084 0.04 -0.05740947
v 0.5330791 0 -0.05740947
vt 0.2525865 0.4381773
vt 0.3403364 0.4319458
vt 0.7920914 0.4319458
vt 0.6945187 0.4399487
vt 0.3363111 0.4434159
vt 0.7379923 0.4428502
vt 0.9176784 0.4496201
vt 0.07952821 0.4456181
vt 0.2147447 0.4489605
vt 0.09288293 0.4593811
vt 0.8017521 0.4525214
vt 0.9157464 0.4593811
vt 0.09288293 0.4593811
vt 0.09288293 0.4593811
vt 0.9157464 0.4593811
vt 0.9157464 0.4593811
vt 0.8017521 0.4525214
vt 0.8017521 0.4525214
vt 0.9176784 0.4496201
vt 0.9176784 0.4496201
vt 0.7379923 0.4428502
vt 0.2147447 0.4489605
vt 0.2147447 0.4489605
vt 0.07952821 0.4456181
vt 0.07952821 0.4456181
vt 0.3363111 0.4434159
vt 0.3363111 0.4434159
vt 0.7379923 0.4428502
vt 0.6945187 0.4399487
vt 0.6945187 0.4399487
vt 0.7920914 0.4319458
vt 0.2525865 0.4381773
vt 0.2525865 0.4381773
vt 0.3403364 0.4319458
vt 0.3403364 0.4319458
vt 0.7920914 0.4319458
vn -0.842822 0.5381474 0.006958408
vn -0.05084483 0.6915935 -0.7204951
vn 0.8405223 0.5374387 -0.06842348
vn 0.8425893 0.5384099 -0.01257368
vn -0.8421476 0.5373521 -0.04516846
vn 0.07394755 0.7007164 -0.7095973
vn 0.8433326 0.5372877 0.01059011
vn -0.8434027 0.5371103 -0.01358112
vn -0.8415716 0.5377817 0.05047904
vn -0.8402631 0.537479 0.07123253
vn 0.842765 0.5374786 0.02939026
vn 0.841908 0.5372634 0.05038752
vn -0.8402631 -0.537479 0.07123253
vn -0.8402631 0.537479 0.07123253
vn 0.841908 0.5372634 0.05038752
vn 0.8419067 -0.5372626 0.05041796
vn 0.842765 0.5374786 0.02939026
vn 0.8427659 -0.5374792 0.02935977
vn 0.8433326 -0.5372877 0.01059011
vn 0.8433326 0.5372877 0.01059011
vn 0.07394755 0.7007164 -0.7095973
vn -0.8415716 -0.5377817 0.05047904
vn -0.8415716 0.5377817 0.05047904
vn -0.8434027 -0.5371103 -0.01358112
vn -0.8434027 0.5371103 -0.01358112
vn -0.8421476 -0.5373521 -0.04516846
vn -0.8421476 0.5373521 -0.04516846
vn 0.07394914 -0.7007008 -0.7096125
vn 0.8425893 0.5384099 -0.01257368
vn 0.8425804 -0.5384238 -0.012574
vn 0.8405223 0.5374387 -0.06842348
vn -0.842822 -0.5381474 0.006958408
vn -0.842822 0.5381474 0.006958408
vn -0.05084483 -0.6915935 -0.7204951
vn -0.05084483 0.6915935 -0.7204951
vn 0.8405241 -0.5374398 -0.06839311
g RoboCrateChunk2_0
f 3/3/3 2/2/2 1/1/1
f 1/1/1 4/4/4 3/3/3
f 1/1/1 5/5/5 4/4/4
f 5/5/5 6/6/6 4/4/4
f 5/5/5 7/7/7 6/6/6
f 5/5/5 8/8/8 7/7/7
f 8/8/8 9/9/9 7/7/7
f 9/9/9 10/10/10 7/7/7
f 10/10/10 11/11/11 7/7/7
f 10/10/10 12/12/12 11/11/11
f 15/15/15 14/14/14 13/13/13
f 16/16/16 15/15/15 13/13/13
f 17/17/17 15/15/15 16/16/16
f 18/18/18 17/17/17 16/16/16
f 18/18/18 16/16/16 13/13/13
f 19/19/19 18/18/18 13/13/13
f 20/20/20 17/17/17 18/18/18
f 19/19/19 20/20/20 18/18/18
f 21/21/21 20/20/20 19/19/19
f 13/13/13 14/14/14 22/22/22
f 19/19/19 13/13/13 22/22/22
f 14/14/14 23/23/23 22/22/22
f 22/22/22 23/23/23 24/24/24
f 19/19/19 22/22/22 24/24/24
f 23/23/23 25/25/25 24/24/24
f 24/24/24 25/25/25 26/26/26
f 19/19/19 24/24/24 26/26/26
f 25/25/25 27/27/27 26/26/26
f 28/28/28 21/21/21 19/19/19
f 28/28/28 19/19/19 26/26/26
f 29/29/29 21/21/21 28/28/28
f 30/30/30 29/29/29 28/28/28
f 30/30/30 28/28/28 26/26/26
f 31/31/31 29/29/29 30/30/30
f 26/26/26 27/27/27 32/32/32
f 30/30/30 26/26/26 32/32/32
f 27/27/27 33/33/33 32/32/32
f 32/32/32 33/33/33 34/34/34
f 30/30/30 32/32/32 34/34/34
f 33/33/33 35/35/35 34/34/34
f 35/35/35 31/31/31 36/36/36
f 36/36/36 31/31/31 30/30/30
f 34/34/34 36/36/36 30/30/30
f 34/34/34 35/35/35 36/36/36
