g RoboCrateChunk1
v -0.9490135 0.01283783 -0.01283783
v 0.9490135 0.01283783 -0.01283783
v 0.8231597 0.1241006 0.02848043
v -0.8231597 0.1241006 0.02848043
v 0.9490135 0.01283783 -0.01283783
v -0.9490135 0.01283783 -0.01283783
v -0.8231597 -0.02848043 -0.1241006
v 0.8231597 -0.02848043 -0.1241006
v 0.9490135 -0.01827383 0.01827383
v 0.9490135 0.01283783 -0.01283783
v 0.8231597 -0.02848043 -0.1241006
v 0.8231597 -0.06926036 -0.1075799
v -0.8231597 -0.02848043 -0.1241006
v -0.8231597 -0.06926036 -0.1075799
v -0.9490135 -0.01827383 0.01827383
v -0.9490135 0.01283783 -0.01283783
v -0.9490135 -0.01827383 0.01827383
v -0.9490135 0.01283783 -0.01283783
v -0.8231597 0.1241006 0.02848043
v -0.8231597 0.1075799 0.06926036
v 0.8231597 0.1241006 0.02848043
v 0.8231597 0.1075799 0.06926036
v 0.9490135 -0.01827383 0.01827383
v 0.9490135 0.01283783 -0.01283783
vt 3.225586 0.7431641
vt 1.775391 0.7431641
vt 1.775391 0.5830078
vt 3.225586 0.5830078
vt 3.225586 0.7451172
vt 1.775391 0.7451172
vt 1.775391 0.5849609
vt 3.225586 0.5849609
vt 3.225586 0.7451172
vt 3.225586 0.7451172
vt 3.225586 0.5849609
vt 3.225586 0.5849609
vt 1.775391 0.5849609
vt 1.775391 0.5849609
vt 1.775391 0.7451172
vt 1.775391 0.7451172
vt 3.225586 0.7431641
vt 3.225586 0.7431641
vt 3.225586 0.5830078
vt 3.225586 0.5830078
vt 1.775391 0.5830078
vt 1.775391 0.5830078
vt 1.775391 0.7431641
vt 1.775391 0.7431641
vn -0.8088473 0.415792 -0.415792
vn 0.8088473 0.415792 -0.415792
vn 0.3077228 0.9052843 -0.2928601
vn -0.3077228 0.9052843 -0.2928601
vn 0.8088473 0.415792 -0.415792
vn -0.8088473 0.415792 -0.415792
vn -0.3077228 0.2928601 -0.9052843
vn 0.3077228 0.2928601 -0.9052843
vn 0.8418989 -0.3815798 0.3815798
vn 0.8088473 0.415792 -0.415792
vn 0.3077228 0.2928601 -0.9052843
vn 0.2871244 -0.8728484 -0.3945824
vn -0.3077228 0.2928601 -0.9052843
vn -0.2871244 -0.8728484 -0.3945824
vn -0.8418989 -0.3815798 0.3815798
vn -0.8088473 0.415792 -0.415792
vn -0.8418989 -0.3815798 0.3815798
vn -0.8088473 0.415792 -0.415792
vn -0.3077228 0.9052843 -0.2928601
vn -0.2871244 0.3945824 0.8728484
vn 0.3077228 0.9052843 -0.2928601
vn 0.2871244 0.3945824 0.8728484
vn 0.8418989 -0.3815798 0.3815798
vn 0.8088473 0.415792 -0.415792
g RoboCrateChunk1_0
f 3/3/3 2/2/2 1/1/1
f 4/4/4 3/3/3 1/1/1
f 7/7/7 6/6/6 5/5/5
f 8/8/8 7/7/7 5/5/5
f 11/11/11 10/10/10 9/9/9
f 12/12/12 11/11/11 9/9/9
f 13/13/13 11/11/11 12/12/12
f 14/14/14 12/12/12 9/9/9
f 14/14/14 13/13/13 12/12/12
f 15/15/15 14/14/14 9/9/9
f 16/16/16 13/13/13 14/14/14
f 15/15/15 16/16/16 14/14/14
f 19/19/19 18/18/18 17/17/17
f 20/20/20 19/19/19 17/17/17
f 21/21/21 19/19/19 20/20/20
f 22/22/22 20/20/20 17/17/17
f 22/22/22 21/21/21 20/20/20
f 23/23/23 22/22/22 17/17/17
f 24/24/24 21/21/21 22/22/22
f 23/23/23 24/24/24 22/22/22
